<svg width="40" height="40" viewBox="0 0 40 40" fill="none" xmlns="http://www.w3.org/2000/svg">
<path opacity="0.5" d="M6.66666 19.9999C6.66666 14.9716 6.66666 12.4574 8.22876 10.8953C9.79086 9.33325 12.305 9.33325 17.3333 9.33325H22.6667C27.695 9.33325 30.2091 9.33325 31.7712 10.8953C33.3333 12.4574 33.3333 14.9716 33.3333 19.9999C33.3333 25.0282 33.3333 27.5424 31.7712 29.1045C30.2091 30.6666 27.695 30.6666 22.6667 30.6666H17.3333C12.305 30.6666 9.79086 30.6666 8.22876 29.1045C6.66666 27.5424 6.66666 25.0282 6.66666 19.9999Z" stroke="#2063F2" stroke-width="2"/>
<path d="M12 14.6667L14.8785 17.0655C17.3274 19.1062 18.5518 20.1266 20 20.1266C21.4482 20.1266 22.6726 19.1062 25.1215 17.0655L28 14.6667" stroke="#2063F2" stroke-width="2" stroke-linecap="round"/>
</svg>
